<svg width="124" height="128" viewBox="0 0 124 128" fill="none" xmlns="http://www.w3.org/2000/svg">
<path d="M0 0V4.92308L4.92064 0H0Z" fill="#434142"/>
<path d="M22.6348 0H17.7142H12.7936L17.7142 4.92308L22.6348 0Z" fill="#434142"/>
<path d="M40.3492 0H35.4286H30.5079L35.4286 4.92308L40.3492 0Z" fill="#434142"/>
<path d="M58.0634 0H53.1428H48.2222L53.1428 4.92308L58.0634 0Z" fill="#434142"/>
<path d="M75.7778 0H70.8572H65.9365L70.8572 4.92308L75.7778 0Z" fill="#434142"/>
<path d="M93.492 0H88.5714H83.6508L88.5714 4.92308L93.492 0Z" fill="#434142"/>
<path d="M111.206 0H106.286H101.365L106.286 4.92308L111.206 0Z" fill="#434142"/>
<path d="M119.079 0L124 4.92308V0H119.079Z" fill="#434142"/>
<path d="M106.286 9.84616L97.4286 0.984619L88.5714 9.84616L79.7143 0.984619L70.8571 9.84616L62 0.984619L53.1429 9.84616L44.2857 0.984619L35.4286 9.84616L26.5714 0.984619L17.7143 9.84616L8.85714 0.984619L0 9.84616V14.7692L4.92063 9.84616L8.85714 5.9077L12.7937 9.84616L17.7143 14.7692L22.6349 9.84616L26.5714 5.9077L30.5079 9.84616L35.4286 14.7692L40.3492 9.84616L44.2857 5.9077L48.2222 9.84616L53.1429 14.7692L58.0635 9.84616L62 5.9077L65.9365 9.84616L70.8571 14.7692L75.7778 9.84616L79.7143 5.9077L83.6508 9.84616L88.5714 14.7692L93.4921 9.84616L97.4286 5.9077L101.365 9.84616L106.286 14.7692L111.206 9.84616L115.143 5.9077L119.079 9.84616L124 14.7692V9.84616L115.143 0.984619L106.286 9.84616Z" fill="#434142"/>
<path d="M106.286 19.6923L97.4286 10.8308L88.5714 19.6923L79.7143 10.8308L70.8571 19.6923L62 10.8308L53.1429 19.6923L44.2857 10.8308L35.4286 19.6923L26.5714 10.8308L17.7143 19.6923L8.85714 10.8308L0 19.6923V24.6154L4.92063 19.6923L8.85714 15.7539L12.7937 19.6923L17.7143 24.6154L22.6349 19.6923L26.5714 15.7539L30.5079 19.6923L35.4286 24.6154L40.3492 19.6923L44.2857 15.7539L48.2222 19.6923L53.1429 24.6154L58.0635 19.6923L62 15.7539L65.9365 19.6923L70.8571 24.6154L75.7778 19.6923L79.7143 15.7539L83.6508 19.6923L88.5714 24.6154L93.4921 19.6923L97.4286 15.7539L101.365 19.6923L106.286 24.6154L111.206 19.6923L115.143 15.7539L119.079 19.6923L124 24.6154V19.6923L115.143 10.8308L106.286 19.6923Z" fill="#434142"/>
<path d="M106.286 29.5384L97.4286 20.6769L88.5714 29.5384L79.7143 20.6769L70.8571 29.5384L62 20.6769L53.1429 29.5384L44.2857 20.6769L35.4286 29.5384L26.5714 20.6769L17.7143 29.5384L8.85714 20.6769L0 29.5384V34.4615L4.92063 29.5384L8.85714 25.6L12.7937 29.5384L17.7143 34.4615L22.6349 29.5384L26.5714 25.6L30.5079 29.5384L35.4286 34.4615L40.3492 29.5384L44.2857 25.6L48.2222 29.5384L53.1429 34.4615L58.0635 29.5384L62 25.6L65.9365 29.5384L70.8571 34.4615L75.7778 29.5384L79.7143 25.6L83.6508 29.5384L88.5714 34.4615L93.4921 29.5384L97.4286 25.6L101.365 29.5384L106.286 34.4615L111.206 29.5384L115.143 25.6L119.079 29.5384L124 34.4615V29.5384L115.143 20.6769L106.286 29.5384Z" fill="#434142"/>
<path d="M106.286 39.3846L97.4286 30.5231L88.5714 39.3846L79.7143 30.5231L70.8571 39.3846L62 30.5231L53.1429 39.3846L44.2857 30.5231L35.4286 39.3846L26.5714 30.5231L17.7143 39.3846L8.85714 30.5231L0 39.3846V44.3077L4.92063 39.3846L8.85714 35.4461L12.7937 39.3846L17.7143 44.3077L22.6349 39.3846L26.5714 35.4461L30.5079 39.3846L35.4286 44.3077L40.3492 39.3846L44.2857 35.4461L48.2222 39.3846L53.1429 44.3077L58.0635 39.3846L62 35.4461L65.9365 39.3846L70.8571 44.3077L75.7778 39.3846L79.7143 35.4461L83.6508 39.3846L88.5714 44.3077L93.4921 39.3846L97.4286 35.4461L101.365 39.3846L106.286 44.3077L111.206 39.3846L115.143 35.4461L119.079 39.3846L124 44.3077V39.3846L115.143 30.5231L106.286 39.3846Z" fill="#434142"/>
<path d="M106.286 49.2308L97.4286 40.3693L88.5714 49.2308L79.7143 40.3693L70.8571 49.2308L62 40.3693L53.1429 49.2308L44.2857 40.3693L35.4286 49.2308L26.5714 40.3693L17.7143 49.2308L8.85714 40.3693L0 49.2308V54.1539L4.92063 49.2308L8.85714 45.2923L12.7937 49.2308L17.7143 54.1539L22.6349 49.2308L26.5714 45.2923L30.5079 49.2308L35.4286 54.1539L40.3492 49.2308L44.2857 45.2923L48.2222 49.2308L53.1429 54.1539L58.0635 49.2308L62 45.2923L65.9365 49.2308L70.8571 54.1539L75.7778 49.2308L79.7143 45.2923L83.6508 49.2308L88.5714 54.1539L93.4921 49.2308L97.4286 45.2923L101.365 49.2308L106.286 54.1539L111.206 49.2308L115.143 45.2923L119.079 49.2308L124 54.1539V49.2308L115.143 40.3693L106.286 49.2308Z" fill="#434142"/>
<path d="M106.286 59.077L97.4286 50.2155L88.5714 59.077L79.7143 50.2155L70.8571 59.077L62 50.2155L53.1429 59.077L44.2857 50.2155L35.4286 59.077L26.5714 50.2155L17.7143 59.077L8.85714 50.2155L0 59.077V64.0001L4.92063 59.077L8.85714 55.1385L12.7937 59.077L17.7143 64.0001L22.6349 59.077L26.5714 55.1385L30.5079 59.077L35.4286 64.0001L40.3492 59.077L44.2857 55.1385L48.2222 59.077L53.1429 64.0001L58.0635 59.077L62 55.1385L65.9365 59.077L70.8571 64.0001L75.7778 59.077L79.7143 55.1385L83.6508 59.077L88.5714 64.0001L93.4921 59.077L97.4286 55.1385L101.365 59.077L106.286 64.0001L111.206 59.077L115.143 55.1385L119.079 59.077L124 64.0001V59.077L115.143 50.2155L106.286 59.077Z" fill="#434142"/>
<path d="M106.286 68.9231L97.4286 60.0615L88.5714 68.9231L79.7143 60.0615L70.8571 68.9231L62 60.0615L53.1429 68.9231L44.2857 60.0615L35.4286 68.9231L26.5714 60.0615L17.7143 68.9231L8.85714 60.0615L0 68.9231V73.8461L4.92063 68.9231L8.85714 64.9846L12.7937 68.9231L17.7143 73.8461L22.6349 68.9231L26.5714 64.9846L30.5079 68.9231L35.4286 73.8461L40.3492 68.9231L44.2857 64.9846L48.2222 68.9231L53.1429 73.8461L58.0635 68.9231L62 64.9846L65.9365 68.9231L70.8571 73.8461L75.7778 68.9231L79.7143 64.9846L83.6508 68.9231L88.5714 73.8461L93.4921 68.9231L97.4286 64.9846L101.365 68.9231L106.286 73.8461L111.206 68.9231L115.143 64.9846L119.079 68.9231L124 73.8461V68.9231L115.143 60.0615L106.286 68.9231Z" fill="#434142"/>
<path d="M106.286 78.7693L97.4286 69.9077L88.5714 78.7693L79.7143 69.9077L70.8571 78.7693L62 69.9077L53.1429 78.7693L44.2857 69.9077L35.4286 78.7693L26.5714 69.9077L17.7143 78.7693L8.85714 69.9077L0 78.7693V83.6923L4.92063 78.7693L8.85714 74.8308L12.7937 78.7693L17.7143 83.6923L22.6349 78.7693L26.5714 74.8308L30.5079 78.7693L35.4286 83.6923L40.3492 78.7693L44.2857 74.8308L48.2222 78.7693L53.1429 83.6923L58.0635 78.7693L62 74.8308L65.9365 78.7693L70.8571 83.6923L75.7778 78.7693L79.7143 74.8308L83.6508 78.7693L88.5714 83.6923L93.4921 78.7693L97.4286 74.8308L101.365 78.7693L106.286 83.6923L111.206 78.7693L115.143 74.8308L119.079 78.7693L124 83.6923V78.7693L115.143 69.9077L106.286 78.7693Z" fill="#434142"/>
<path d="M106.286 88.6153L97.4286 79.7538L88.5714 88.6153L79.7143 79.7538L70.8571 88.6153L62 79.7538L53.1429 88.6153L44.2857 79.7538L35.4286 88.6153L26.5714 79.7538L17.7143 88.6153L8.85714 79.7538L0 88.6153V93.5384L4.92063 88.6153L8.85714 84.6769L12.7937 88.6153L17.7143 93.5384L22.6349 88.6153L26.5714 84.6769L30.5079 88.6153L35.4286 93.5384L40.3492 88.6153L44.2857 84.6769L48.2222 88.6153L53.1429 93.5384L58.0635 88.6153L62 84.6769L65.9365 88.6153L70.8571 93.5384L75.7778 88.6153L79.7143 84.6769L83.6508 88.6153L88.5714 93.5384L93.4921 88.6153L97.4286 84.6769L101.365 88.6153L106.286 93.5384L111.206 88.6153L115.143 84.6769L119.079 88.6153L124 93.5384V88.6153L115.143 79.7538L106.286 88.6153Z" fill="#434142"/>
<path d="M106.286 98.4615L97.4286 89.6L88.5714 98.4615L79.7143 89.6L70.8571 98.4615L62 89.6L53.1429 98.4615L44.2857 89.6L35.4286 98.4615L26.5714 89.6L17.7143 98.4615L8.85714 89.6L0 98.4615V103.385L4.92063 98.4615L8.85714 94.5231L12.7937 98.4615L17.7143 103.385L22.6349 98.4615L26.5714 94.5231L30.5079 98.4615L35.4286 103.385L40.3492 98.4615L44.2857 94.5231L48.2222 98.4615L53.1429 103.385L58.0635 98.4615L62 94.5231L65.9365 98.4615L70.8571 103.385L75.7778 98.4615L79.7143 94.5231L83.6508 98.4615L88.5714 103.385L93.4921 98.4615L97.4286 94.5231L101.365 98.4615L106.286 103.385L111.206 98.4615L115.143 94.5231L119.079 98.4615L124 103.385V98.4615L115.143 89.6L106.286 98.4615Z" fill="#434142"/>
<path d="M106.286 108.308L97.4286 99.4462L88.5714 108.308L79.7143 99.4462L70.8571 108.308L62 99.4462L53.1429 108.308L44.2857 99.4462L35.4286 108.308L26.5714 99.4462L17.7143 108.308L8.85714 99.4462L0 108.308V113.231L4.92063 108.308L8.85714 104.369L12.7937 108.308L17.7143 113.231L22.6349 108.308L26.5714 104.369L30.5079 108.308L35.4286 113.231L40.3492 108.308L44.2857 104.369L48.2222 108.308L53.1429 113.231L58.0635 108.308L62 104.369L65.9365 108.308L70.8571 113.231L75.7778 108.308L79.7143 104.369L83.6508 108.308L88.5714 113.231L93.4921 108.308L97.4286 104.369L101.365 108.308L106.286 113.231L111.206 108.308L115.143 104.369L119.079 108.308L124 113.231V108.308L115.143 99.4462L106.286 108.308Z" fill="#434142"/>
<path d="M106.286 118.154L97.4286 109.292L88.5714 118.154L79.7143 109.292L70.8571 118.154L62 109.292L53.1429 118.154L44.2857 109.292L35.4286 118.154L26.5714 109.292L17.7143 118.154L8.85714 109.292L0 118.154V123.077L4.92063 118.154L8.85714 114.215L12.7937 118.154L17.7143 123.077L22.6349 118.154L26.5714 114.215L30.5079 118.154L35.4286 123.077L40.3492 118.154L44.2857 114.215L48.2222 118.154L53.1429 123.077L58.0635 118.154L62 114.215L65.9365 118.154L70.8571 123.077L75.7778 118.154L79.7143 114.215L83.6508 118.154L88.5714 123.077L93.4921 118.154L97.4286 114.215L101.365 118.154L106.286 123.077L111.206 118.154L115.143 114.215L119.079 118.154L124 123.077V118.154L115.143 109.292L106.286 118.154Z" fill="#434142"/>
<path d="M0 128H4.92064L8.85714 124.061L12.7937 128H17.7143L8.85714 119.138L0 128Z" fill="#434142"/>
<path d="M17.7142 128H22.6349L26.5714 124.061L30.5079 128H35.4285L26.5714 119.138L17.7142 128Z" fill="#434142"/>
<path d="M35.4286 128H40.3492L44.2857 124.061L48.2222 128H53.1429L44.2857 119.138L35.4286 128Z" fill="#434142"/>
<path d="M53.1428 128H58.0635L62 124.061L65.9365 128H70.8571L62 119.138L53.1428 128Z" fill="#434142"/>
<path d="M70.8572 128H75.7778L79.7143 124.061L83.6508 128H88.5715L79.7143 119.138L70.8572 128Z" fill="#434142"/>
<path d="M88.5714 128H93.492L97.4285 124.061L101.365 128H106.286L97.4285 119.138L88.5714 128Z" fill="#434142"/>
<path d="M106.286 128H111.206L115.143 124.061L119.079 128H124L115.143 119.138L106.286 128Z" fill="#434142"/>
<path d="M111.206 128H119.079L115.143 124.062L111.206 128Z" fill="#F2D264"/>
<path d="M115.143 114.215L111.206 118.154L106.286 123.077L101.365 118.154L97.4286 114.215L93.4921 118.154L88.5714 123.077L83.6508 118.154L79.7143 114.215L75.7778 118.154L70.8571 123.077L65.9365 118.154L62 114.215L58.0635 118.154L53.1429 123.077L48.2222 118.154L44.2857 114.215L40.3492 118.154L35.4286 123.077L30.5079 118.154L26.5714 114.215L22.6349 118.154L17.7143 123.077L12.7937 118.154L8.85714 114.215L4.92063 118.154L0 123.077V128L8.85714 119.138L17.7143 128L26.5714 119.138L35.4286 128L44.2857 119.138L53.1429 128L62 119.138L70.8571 128L79.7143 119.138L88.5714 128L97.4286 119.138L106.286 128L115.143 119.138L124 128V123.077L119.079 118.154L115.143 114.215Z" fill="#F2D264"/>
<path d="M115.143 94.5231L111.206 98.4615L106.286 103.385L101.365 98.4615L97.4286 94.5231L93.4921 98.4615L88.5714 103.385L83.6508 98.4615L79.7143 94.5231L75.7778 98.4615L70.8571 103.385L65.9365 98.4615L62 94.5231L58.0635 98.4615L53.1429 103.385L48.2222 98.4615L44.2857 94.5231L40.3492 98.4615L35.4286 103.385L30.5079 98.4615L26.5714 94.5231L22.6349 98.4615L17.7143 103.385L12.7937 98.4615L8.85714 94.5231L4.92063 98.4615L0 103.385V108.308L8.85714 99.4461L17.7143 108.308L26.5714 99.4461L35.4286 108.308L44.2857 99.4461L53.1429 108.308L62 99.4461L70.8571 108.308L79.7143 99.4461L88.5714 108.308L97.4286 99.4461L106.286 108.308L115.143 99.4461L124 108.308V103.385L119.079 98.4615L115.143 94.5231Z" fill="#F2D264"/>
<path d="M93.4921 128H101.365L97.4286 124.062L93.4921 128Z" fill="#F2D264"/>
<path d="M115.143 104.369L111.206 108.308L106.286 113.231L101.365 108.308L97.4286 104.369L93.4921 108.308L88.5714 113.231L83.6508 108.308L79.7143 104.369L75.7778 108.308L70.8571 113.231L65.9365 108.308L62 104.369L58.0635 108.308L53.1429 113.231L48.2222 108.308L44.2857 104.369L40.3492 108.308L35.4286 113.231L30.5079 108.308L26.5714 104.369L22.6349 108.308L17.7143 113.231L12.7937 108.308L8.85714 104.369L4.92063 108.308L0 113.231V118.154L8.85714 109.292L17.7143 118.154L26.5714 109.292L35.4286 118.154L44.2857 109.292L53.1429 118.154L62 109.292L70.8571 118.154L79.7143 109.292L88.5714 118.154L97.4286 109.292L106.286 118.154L115.143 109.292L124 118.154V113.231L119.079 108.308L115.143 104.369Z" fill="#F2D264"/>
<path d="M22.6349 128H30.5079L26.5714 124.062L22.6349 128Z" fill="#F2D264"/>
<path d="M4.92065 128H12.7937L8.85716 124.062L4.92065 128Z" fill="#F2D264"/>
<path d="M58.0635 128H65.9365L62 124.062L58.0635 128Z" fill="#F2D264"/>
<path d="M40.3492 128H48.2223L44.2858 124.062L40.3492 128Z" fill="#F2D264"/>
<path d="M75.7778 128H83.6508L79.7143 124.062L75.7778 128Z" fill="#F2D264"/>
<path d="M115.143 64.9846L111.206 68.9231L106.286 73.8462L101.365 68.9231L97.4286 64.9846L93.4921 68.9231L88.5714 73.8462L83.6508 68.9231L79.7143 64.9846L75.7778 68.9231L70.8571 73.8462L65.9365 68.9231L62 64.9846L58.0635 68.9231L53.1429 73.8462L48.2222 68.9231L44.2857 64.9846L40.3492 68.9231L35.4286 73.8462L30.5079 68.9231L26.5714 64.9846L22.6349 68.9231L17.7143 73.8462L12.7937 68.9231L8.85714 64.9846L4.92063 68.9231L0 73.8462V78.7692L8.85714 69.9077L17.7143 78.7692L26.5714 69.9077L35.4286 78.7692L44.2857 69.9077L53.1429 78.7692L62 69.9077L70.8571 78.7692L79.7143 69.9077L88.5714 78.7692L97.4286 69.9077L106.286 78.7692L115.143 69.9077L124 78.7692V73.8462L119.079 68.9231L115.143 64.9846Z" fill="#F2D264"/>
<path d="M115.143 5.90771L111.206 9.84618L106.286 14.7693L101.365 9.84618L97.4286 5.90771L93.4921 9.84618L88.5714 14.7693L83.6508 9.84618L79.7143 5.90771L75.7778 9.84618L70.8571 14.7693L65.9365 9.84618L62 5.90771L58.0635 9.84618L53.1429 14.7693L48.2222 9.84618L44.2857 5.90771L40.3492 9.84618L35.4286 14.7693L30.5079 9.84618L26.5714 5.90771L22.6349 9.84618L17.7143 14.7693L12.7937 9.84618L8.85714 5.90771L4.92063 9.84618L0 14.7693V19.6923L8.85714 10.8308L17.7143 19.6923L26.5714 10.8308L35.4286 19.6923L44.2857 10.8308L53.1429 19.6923L62 10.8308L70.8571 19.6923L79.7143 10.8308L88.5714 19.6923L97.4286 10.8308L106.286 19.6923L115.143 10.8308L124 19.6923V14.7693L119.079 9.84618L115.143 5.90771Z" fill="#F2D264"/>
<path d="M115.143 25.6L111.206 29.5384L106.286 34.4615L101.365 29.5384L97.4286 25.6L93.4921 29.5384L88.5714 34.4615L83.6508 29.5384L79.7143 25.6L75.7778 29.5384L70.8571 34.4615L65.9365 29.5384L62 25.6L58.0635 29.5384L53.1429 34.4615L48.2222 29.5384L44.2857 25.6L40.3492 29.5384L35.4286 34.4615L30.5079 29.5384L26.5714 25.6L22.6349 29.5384L17.7143 34.4615L12.7937 29.5384L8.85714 25.6L4.92063 29.5384L0 34.4615V39.3846L8.85714 30.5231L17.7143 39.3846L26.5714 30.5231L35.4286 39.3846L44.2857 30.5231L53.1429 39.3846L62 30.5231L70.8571 39.3846L79.7143 30.5231L88.5714 39.3846L97.4286 30.5231L106.286 39.3846L115.143 30.5231L124 39.3846V34.4615L119.079 29.5384L115.143 25.6Z" fill="#F2D264"/>
<path d="M115.143 15.7538L111.206 19.6922L106.286 24.6153L101.365 19.6922L97.4286 15.7538L93.4921 19.6922L88.5714 24.6153L83.6508 19.6922L79.7143 15.7538L75.7778 19.6922L70.8571 24.6153L65.9365 19.6922L62 15.7538L58.0635 19.6922L53.1429 24.6153L48.2222 19.6922L44.2857 15.7538L40.3492 19.6922L35.4286 24.6153L30.5079 19.6922L26.5714 15.7538L22.6349 19.6922L17.7143 24.6153L12.7937 19.6922L8.85714 15.7538L4.92063 19.6922L0 24.6153V29.5384L8.85714 20.6769L17.7143 29.5384L26.5714 20.6769L35.4286 29.5384L44.2857 20.6769L53.1429 29.5384L62 20.6769L70.8571 29.5384L79.7143 20.6769L88.5714 29.5384L97.4286 20.6769L106.286 29.5384L115.143 20.6769L124 29.5384V24.6153L119.079 19.6922L115.143 15.7538Z" fill="#F2D264"/>
<path d="M111.206 0L106.286 4.92308L101.365 0H93.4921L88.5714 4.92308L83.6508 0H75.7778L70.8571 4.92308L65.9365 0H58.0635L53.1429 4.92308L48.2222 0H40.3492L35.4286 4.92308L30.5079 0H22.6349L17.7143 4.92308L12.7937 0H4.92063L0 4.92308V9.84615L8.85714 0.984615L17.7143 9.84615L26.5714 0.984615L35.4286 9.84615L44.2857 0.984615L53.1429 9.84615L62 0.984615L70.8571 9.84615L79.7143 0.984615L88.5714 9.84615L97.4286 0.984615L106.286 9.84615L115.143 0.984615L124 9.84615V4.92308L119.079 0H111.206Z" fill="#F2D264"/>
<path d="M115.143 84.6769L111.206 88.6153L106.286 93.5384L101.365 88.6153L97.4286 84.6769L93.4921 88.6153L88.5714 93.5384L83.6508 88.6153L79.7143 84.6769L75.7778 88.6153L70.8571 93.5384L65.9365 88.6153L62 84.6769L58.0635 88.6153L53.1429 93.5384L48.2222 88.6153L44.2857 84.6769L40.3492 88.6153L35.4286 93.5384L30.5079 88.6153L26.5714 84.6769L22.6349 88.6153L17.7143 93.5384L12.7937 88.6153L8.85714 84.6769L4.92063 88.6153L0 93.5384V98.4615L8.85714 89.6L17.7143 98.4615L26.5714 89.6L35.4286 98.4615L44.2857 89.6L53.1429 98.4615L62 89.6L70.8571 98.4615L79.7143 89.6L88.5714 98.4615L97.4286 89.6L106.286 98.4615L115.143 89.6L124 98.4615V93.5384L119.079 88.6153L115.143 84.6769Z" fill="#F2D264"/>
<path d="M115.143 74.8308L111.206 78.7693L106.286 83.6923L101.365 78.7693L97.4286 74.8308L93.4921 78.7693L88.5714 83.6923L83.6508 78.7693L79.7143 74.8308L75.7778 78.7693L70.8571 83.6923L65.9365 78.7693L62 74.8308L58.0635 78.7693L53.1429 83.6923L48.2222 78.7693L44.2857 74.8308L40.3492 78.7693L35.4286 83.6923L30.5079 78.7693L26.5714 74.8308L22.6349 78.7693L17.7143 83.6923L12.7937 78.7693L8.85714 74.8308L4.92063 78.7693L0 83.6923V88.6154L8.85714 79.7539L17.7143 88.6154L26.5714 79.7539L35.4286 88.6154L44.2857 79.7539L53.1429 88.6154L62 79.7539L70.8571 88.6154L79.7143 79.7539L88.5714 88.6154L97.4286 79.7539L106.286 88.6154L115.143 79.7539L124 88.6154V83.6923L119.079 78.7693L115.143 74.8308Z" fill="#F2D264"/>
<path d="M115.143 55.1384L111.206 59.0769L106.286 64L101.365 59.0769L97.4286 55.1384L93.4921 59.0769L88.5714 64L83.6508 59.0769L79.7143 55.1384L75.7778 59.0769L70.8571 64L65.9365 59.0769L62 55.1384L58.0635 59.0769L53.1429 64L48.2222 59.0769L44.2857 55.1384L40.3492 59.0769L35.4286 64L30.5079 59.0769L26.5714 55.1384L22.6349 59.0769L17.7143 64L12.7937 59.0769L8.85714 55.1384L4.92063 59.0769L0 64V68.923L8.85714 60.0615L17.7143 68.923L26.5714 60.0615L35.4286 68.923L44.2857 60.0615L53.1429 68.923L62 60.0615L70.8571 68.923L79.7143 60.0615L88.5714 68.923L97.4286 60.0615L106.286 68.923L115.143 60.0615L124 68.923V64L119.079 59.0769L115.143 55.1384Z" fill="#F2D264"/>
<path d="M115.143 35.4462L111.206 39.3846L106.286 44.3077L101.365 39.3846L97.4286 35.4462L93.4921 39.3846L88.5714 44.3077L83.6508 39.3846L79.7143 35.4462L75.7778 39.3846L70.8571 44.3077L65.9365 39.3846L62 35.4462L58.0635 39.3846L53.1429 44.3077L48.2222 39.3846L44.2857 35.4462L40.3492 39.3846L35.4286 44.3077L30.5079 39.3846L26.5714 35.4462L22.6349 39.3846L17.7143 44.3077L12.7937 39.3846L8.85714 35.4462L4.92063 39.3846L0 44.3077V49.2308L8.85714 40.3692L17.7143 49.2308L26.5714 40.3692L35.4286 49.2308L44.2857 40.3692L53.1429 49.2308L62 40.3692L70.8571 49.2308L79.7143 40.3692L88.5714 49.2308L97.4286 40.3692L106.286 49.2308L115.143 40.3692L124 49.2308V44.3077L119.079 39.3846L115.143 35.4462Z" fill="#F2D264"/>
<path d="M115.143 45.2924L111.206 49.2308L106.286 54.1539L101.365 49.2308L97.4286 45.2924L93.4921 49.2308L88.5714 54.1539L83.6508 49.2308L79.7143 45.2924L75.7778 49.2308L70.8571 54.1539L65.9365 49.2308L62 45.2924L58.0635 49.2308L53.1429 54.1539L48.2222 49.2308L44.2857 45.2924L40.3492 49.2308L35.4286 54.1539L30.5079 49.2308L26.5714 45.2924L22.6349 49.2308L17.7143 54.1539L12.7937 49.2308L8.85714 45.2924L4.92063 49.2308L0 54.1539V59.077L8.85714 50.2154L17.7143 59.077L26.5714 50.2154L35.4286 59.077L44.2857 50.2154L53.1429 59.077L62 50.2154L70.8571 59.077L79.7143 50.2154L88.5714 59.077L97.4286 50.2154L106.286 59.077L115.143 50.2154L124 59.077V54.1539L119.079 49.2308L115.143 45.2924Z" fill="#F2D264"/>
</svg>
